<svg width="1024" height="1024" viewBox="0 0 1024 1024" fill="none" xmlns="http://www.w3.org/2000/svg">
<rect width="1024" height="1024" fill="#F0F7EE"/>
<path d="M365.9 520.3H511.7L488.9 703C477.7 711.2 466.1 718.3 454.1 724.3C442.1 730.1 429.5 734.9 416.3 738.7C403.3 742.5 389.5 745.3 374.9 747.1C360.5 748.9 345.1 749.8 328.7 749.8C301.7 749.8 277 744.9 254.6 735.1C232.4 725.1 213.3 711.4 197.3 694C181.5 676.6 169.2 656 160.4 632.2C151.8 608.4 147.5 582.6 147.5 554.8C147.5 530.6 150.2 507.6 155.6 485.8C161.2 463.8 169.1 443.5 179.3 424.9C189.5 406.3 201.7 389.5 215.9 374.5C230.3 359.5 246.2 346.7 263.6 336.1C281.2 325.5 300.1 317.4 320.3 311.8C340.5 306 361.7 303.1 383.9 303.1C402.5 303.1 419.3 304.8 434.3 308.2C449.5 311.6 463.1 316.2 475.1 322C487.1 327.6 497.8 334.2 507.2 341.8C516.6 349.2 524.9 356.9 532.1 364.9L500.3 404.2C495.1 411.2 488.9 415.5 481.7 417.1C474.5 418.5 467.1 416.8 459.5 412C452.5 407.2 445.9 403.1 439.7 399.7C433.5 396.1 427.2 393.2 420.8 391C414.4 388.6 407.6 386.9 400.4 385.9C393.4 384.7 385.5 384.1 376.7 384.1C357.7 384.1 340.3 388.2 324.5 396.4C308.7 404.4 295.1 415.8 283.7 430.6C272.3 445.2 263.4 462.8 257 483.4C250.8 504 247.7 526.7 247.7 551.5C247.7 570.7 250 588 254.6 603.4C259.4 618.6 266.1 631.5 274.7 642.1C283.3 652.5 293.6 660.5 305.6 666.1C317.6 671.7 330.9 674.5 345.5 674.5C357.5 674.5 368.3 673.5 377.9 671.5C387.5 669.3 396.7 666.3 405.5 662.5L413.9 591.1H376.7C370.7 591.1 366.1 589.6 362.9 586.6C359.9 583.4 358.7 579.3 359.3 574.3L365.9 520.3ZM687.083 383.2L672.983 498.4H807.983L797.783 573.7H663.683L642.383 745H543.983L597.983 307.9H858.383L848.783 383.2H687.083Z" fill="#2A4422"/>
</svg>
