<svg width="160" height="160" viewBox="0 0 160 160" fill="none" xmlns="http://www.w3.org/2000/svg">
<rect width="160" height="160" rx="16" fill="#F5F5F5"/>
<g filter="url(#filter0_d_2796_162)">
<path d="M96.64 146.952C93.2267 146.952 90.2187 146.355 87.616 145.16C85.056 144.008 83.0293 142.365 81.536 140.232L87.552 134.216C88.6613 135.539 89.8987 136.541 91.264 137.224C92.672 137.907 94.3573 138.248 96.32 138.248C98.752 138.248 100.651 137.651 102.016 136.456C103.424 135.261 104.128 133.576 104.128 131.4V123.464L105.792 116.68L104.32 109.896V101.896H113.92V131.144C113.92 134.344 113.173 137.117 111.68 139.464C110.187 141.811 108.139 143.645 105.536 144.968C102.933 146.291 99.968 146.952 96.64 146.952ZM96.192 132.04C93.3333 132.04 90.7947 131.357 88.576 129.992C86.3573 128.627 84.608 126.771 83.328 124.424C82.048 122.077 81.408 119.475 81.408 116.616C81.408 113.715 82.048 111.112 83.328 108.808C84.608 106.461 86.3573 104.627 88.576 103.304C90.7947 101.939 93.3333 101.256 96.192 101.256C98.3253 101.256 100.224 101.661 101.888 102.472C103.595 103.24 104.96 104.349 105.984 105.8C107.051 107.208 107.648 108.851 107.776 110.728V122.568C107.648 124.403 107.051 126.045 105.984 127.496C104.96 128.904 103.595 130.013 101.888 130.824C100.181 131.635 98.2827 132.04 96.192 132.04ZM98.048 123.336C99.4133 123.336 100.587 123.037 101.568 122.44C102.592 121.843 103.36 121.053 103.872 120.072C104.427 119.048 104.704 117.896 104.704 116.616C104.704 115.336 104.427 114.184 103.872 113.16C103.36 112.136 102.592 111.325 101.568 110.728C100.587 110.131 99.4133 109.832 98.048 109.832C96.7253 109.832 95.552 110.131 94.528 110.728C93.504 111.325 92.7147 112.136 92.16 113.16C91.6053 114.184 91.328 115.336 91.328 116.616C91.328 117.811 91.6053 118.941 92.16 120.008C92.7147 121.032 93.4827 121.843 94.464 122.44C95.488 123.037 96.6827 123.336 98.048 123.336ZM124.799 133V99.208C124.799 96.6907 125.354 94.4293 126.463 92.424C127.615 90.376 129.215 88.776 131.263 87.624C133.311 86.4293 135.743 85.832 138.559 85.832C140.692 85.832 142.548 86.1947 144.127 86.92C145.748 87.6027 147.156 88.5627 148.351 89.8L142.207 95.944C141.78 95.5173 141.29 95.1973 140.735 94.984C140.223 94.728 139.604 94.6 138.879 94.6C137.556 94.6 136.511 94.984 135.743 95.752C134.975 96.52 134.591 97.5653 134.591 98.888V133H124.799ZM117.951 110.216V101.896H143.551V110.216H117.951Z" fill="#0C1018"/>
</g>
<defs>
<filter id="filter0_d_2796_162" x="77.408" y="85.832" width="74.943" height="69.1201" filterUnits="userSpaceOnUse" color-interpolation-filters="sRGB">
<feFlood flood-opacity="0" result="BackgroundImageFix"/>
<feColorMatrix in="SourceAlpha" type="matrix" values="0 0 0 0 0 0 0 0 0 0 0 0 0 0 0 0 0 0 127 0" result="hardAlpha"/>
<feOffset dy="4"/>
<feGaussianBlur stdDeviation="2"/>
<feComposite in2="hardAlpha" operator="out"/>
<feColorMatrix type="matrix" values="0 0 0 0 0 0 0 0 0 0 0 0 0 0 0 0 0 0 0.25 0"/>
<feBlend mode="normal" in2="BackgroundImageFix" result="effect1_dropShadow_2796_162"/>
<feBlend mode="normal" in="SourceGraphic" in2="effect1_dropShadow_2796_162" result="shape"/>
</filter>
</defs>
</svg>
